<svg viewBox="0 0 70 85" xmlns="http://www.w3.org/2000/svg">
<!-- しゃろぺん - 考え中ポーズ -->
<!-- 体（背中） -->
<ellipse cx="30" cy="64" rx="21" ry="18" fill="#33313f"/>
<ellipse cx="30" cy="66" rx="18" ry="15" fill="#403e4e"/>
<ellipse cx="30" cy="70" rx="12" ry="14" fill="#fdf9f2"/>

<!-- 首元リボン -->
<path d="M19 49 Q30 56 41 49" fill="#2d5016"/>
<path d="M22 50 Q30 54 38 50" fill="#4a7a2e"/>

<!-- 頭（黒） -->
<ellipse cx="30" cy="34" rx="23" ry="21" fill="#33313f"/>
<ellipse cx="30" cy="36" rx="20" ry="18" fill="#3b394a"/>

<!-- 顔（白） -->
<ellipse cx="30" cy="40" rx="15" ry="14" fill="#fdf9f2"/>
<ellipse cx="24" cy="33" rx="6" ry="7" fill="#ffffff" opacity="0.45"/>

<!-- キャップ -->
<path d="M11 19 Q13 5 30 3 Q47 5 49 19 Q47 14 30 13 Q13 14 11 19Z" fill="#1c3a5e"/>
<path d="M13 18 Q15 8 30 7 Q45 8 47 18 Q45 14 30 13 Q15 14 13 18Z" fill="#26507a"/>
<ellipse cx="30" cy="19" rx="20" ry="4" fill="#14283f"/>
<ellipse cx="30" cy="18.2" rx="18" ry="3.2" fill="#1c3a5e"/>
<circle cx="30" cy="11" r="4" fill="#f0d060"/>
<text x="30" y="12.6" font-family="'Hiragino Sans', 'Yu Gothic', sans-serif" font-size="5.5" font-weight="700" fill="#1c3a5e" text-anchor="middle">M</text>

<!-- 目（考え中・上目づかい） -->
<ellipse cx="23" cy="37" rx="5" ry="5.5" fill="white" stroke="#c8c4b8" stroke-width="0.4"/>
<ellipse cx="37" cy="37" rx="5" ry="5.5" fill="white" stroke="#c8c4b8" stroke-width="0.4"/>
<ellipse cx="24.5" cy="35" rx="3" ry="3.5" fill="#1c1c26"/>
<ellipse cx="38.5" cy="35" rx="3" ry="3.5" fill="#1c1c26"/>
<circle cx="26" cy="33" r="1.5" fill="white"/>
<circle cx="40" cy="33" r="1.5" fill="white"/>

<!-- ほっぺ -->
<ellipse cx="18" cy="43" rx="3.5" ry="2" fill="#ffc0cb" opacity="0.4"/>
<ellipse cx="42" cy="43" rx="3.5" ry="2" fill="#ffc0cb" opacity="0.4"/>

<!-- くちばし -->
<path d="M25 42 Q30 39 35 42 Q35.5 47 30 51 Q24.5 47 25 42Z" fill="#f5a623"/>
<path d="M26 43 Q30 41 34 43 Q34 45.5 30 46.5 Q26 45.5 26 43Z" fill="#e8830a"/>

<!-- 右手（あごに） -->
<path d="M42 45 Q47 44 48 49 Q49 54 44 55 Q40 55 39 50 Q39 46 42 45Z" fill="#33313f"/>

<!-- 左手 -->
<path d="M9 60 Q4 62 4 68 Q4 73 9 73 Q13 72 13 66 Q13 62 9 60Z" fill="#33313f"/>

<!-- はてなマーク -->
<text x="48" y="14" font-size="16" font-weight="bold" fill="#f5a623" font-family="sans-serif">?</text>

<!-- 足 -->
<ellipse cx="23" cy="79" rx="7" ry="4" fill="#e8830a"/>
<ellipse cx="23" cy="78" rx="6" ry="3.2" fill="#f5a623"/>
<ellipse cx="37" cy="79" rx="7" ry="4" fill="#e8830a"/>
<ellipse cx="37" cy="78" rx="6" ry="3.2" fill="#f5a623"/>
</svg>
