<svg viewBox="0 0 60 80" xmlns="http://www.w3.org/2000/svg">
<!-- しゃろぺん - のぞき見ポーズ -->
<!-- 体（半分隠れている） -->
<ellipse cx="30" cy="62" rx="21" ry="17" fill="#33313f"/>
<ellipse cx="30" cy="64" rx="18" ry="14" fill="#403e4e"/>
<ellipse cx="30" cy="68" rx="12" ry="13" fill="#fdf9f2"/>

<!-- 首元リボン -->
<path d="M20 47 Q30 53 40 47" fill="#2d5016"/>
<path d="M23 48 Q30 51 37 48" fill="#4a7a2e"/>

<!-- 頭（黒） -->
<ellipse cx="30" cy="32" rx="23" ry="21" fill="#33313f"/>
<ellipse cx="30" cy="34" rx="20" ry="18" fill="#3b394a"/>

<!-- 顔（白） -->
<ellipse cx="30" cy="38" rx="15" ry="14" fill="#fdf9f2"/>
<ellipse cx="24" cy="31" rx="6" ry="7" fill="#ffffff" opacity="0.45"/>

<!-- キャップ -->
<path d="M11 17 Q13 3 30 1 Q47 3 49 17 Q47 12 30 11 Q13 12 11 17Z" fill="#1c3a5e"/>
<path d="M13 16 Q15 6 30 5 Q45 6 47 16 Q45 12 30 11 Q15 12 13 16Z" fill="#26507a"/>
<ellipse cx="30" cy="17" rx="20" ry="4" fill="#14283f"/>
<ellipse cx="30" cy="16.2" rx="18" ry="3.2" fill="#1c3a5e"/>
<circle cx="30" cy="9" r="4" fill="#f0d060"/>
<text x="30" y="10.6" font-family="'Hiragino Sans', 'Yu Gothic', sans-serif" font-size="5.5" font-weight="700" fill="#1c3a5e" text-anchor="middle">M</text>

<!-- 目（キラキラ） -->
<ellipse cx="23" cy="35" rx="5" ry="5.5" fill="white" stroke="#c8c4b8" stroke-width="0.4"/>
<ellipse cx="37" cy="35" rx="5" ry="5.5" fill="white" stroke="#c8c4b8" stroke-width="0.4"/>
<ellipse cx="24.2" cy="36" rx="3" ry="3.5" fill="#1c1c26"/>
<ellipse cx="38.2" cy="36" rx="3" ry="3.5" fill="#1c1c26"/>
<circle cx="26" cy="33" r="1.5" fill="white"/>
<circle cx="40" cy="33" r="1.5" fill="white"/>

<!-- ほっぺ -->
<ellipse cx="18" cy="41" rx="3.5" ry="2" fill="#ffc0cb" opacity="0.4"/>
<ellipse cx="42" cy="41" rx="3.5" ry="2" fill="#ffc0cb" opacity="0.4"/>

<!-- くちばし -->
<path d="M25 40 Q30 37 35 40 Q35.5 45 30 49 Q24.5 45 25 40Z" fill="#f5a623"/>
<path d="M26 41 Q30 39 34 41 Q34 43.5 30 44.5 Q26 43.5 26 41Z" fill="#e8830a"/>

<!-- 手（のぞき見） -->
<path d="M9 55 Q4 57 4 63 Q4 68 9 68 Q13 67 13 61 Q13 57 9 55Z" fill="#33313f"/>
<path d="M51 55 Q56 57 56 63 Q56 68 51 68 Q47 67 47 61 Q47 57 51 55Z" fill="#33313f"/>
</svg>
