<svg viewBox="0 0 120 150" xmlns="http://www.w3.org/2000/svg">
<!-- しゃろぺん（ペンギン）小 - 手を振るポーズ -->

<!-- 体（背中） -->
<ellipse cx="60" cy="109" rx="31" ry="28" fill="#33313f"/>
<ellipse cx="60" cy="111" rx="28" ry="25" fill="#403e4e"/>

<!-- おなか（白） -->
<ellipse cx="60" cy="115" rx="19" ry="22" fill="#fdf9f2"/>
<ellipse cx="55" cy="105" rx="8" ry="10" fill="#ffffff" opacity="0.5"/>

<!-- 首元リボン -->
<path d="M47 88 Q60 96 73 88" fill="#2d5016"/>
<path d="M50 89 Q60 94 70 89" fill="#4a7a2e"/>
<path d="M60 93 L56 100 Q55 102 58 102 L62 102 Q65 102 64 100Z" fill="#2d5016"/>

<!-- 右手（下げ） -->
<path d="M90 96 Q83 99 82 108 Q81 117 88 120 Q94 121 95 113 Q96 103 90 96Z" fill="#33313f"/>
<path d="M89 100 Q85 103 84 109" fill="none" stroke="#403e4e" stroke-width="1.2" stroke-linecap="round"/>

<!-- 左手（振っている） -->
<g transform="translate(27, 80) rotate(-35)">
  <path d="M0 -12 Q9 -10 10 0 Q11 11 3 15 Q-5 16 -6 7 Q-7 -4 0 -12Z" fill="#33313f"/>
  <path d="M1 -8 Q7 -6 7 1 Q8 8 3 10" fill="#403e4e"/>
</g>

<!-- 頭（黒） -->
<ellipse cx="60" cy="58" rx="32" ry="29" fill="#33313f"/>
<ellipse cx="60" cy="60" rx="29" ry="26" fill="#3b394a"/>

<!-- 顔（白） -->
<ellipse cx="60" cy="66" rx="22" ry="20" fill="#fdf9f2"/>
<ellipse cx="52" cy="58" rx="9" ry="10" fill="#ffffff" opacity="0.45"/>

<!-- キャップ -->
<path d="M30 40 Q33 18 60 15 Q87 18 90 40 Q87 33 60 32 Q33 33 30 40Z" fill="#1c3a5e"/>
<path d="M33 39 Q36 22 60 20 Q84 22 87 39 Q84 33 60 32 Q36 33 33 39Z" fill="#26507a"/>
<ellipse cx="60" cy="40" rx="34" ry="6" fill="#14283f"/>
<ellipse cx="60" cy="38.5" rx="31" ry="5" fill="#1c3a5e"/>
<circle cx="60" cy="26" r="6" fill="#f0d060"/>
<text x="60" y="28.7" font-family="'Hiragino Sans', 'Yu Gothic', sans-serif" font-size="8" font-weight="700" fill="#1c3a5e" text-anchor="middle">M</text>

<!-- 目 -->
<ellipse cx="49" cy="61" rx="7" ry="7.5" fill="white" stroke="#c8c4b8" stroke-width="0.5"/>
<ellipse cx="71" cy="61" rx="7" ry="7.5" fill="white" stroke="#c8c4b8" stroke-width="0.5"/>
<ellipse cx="50.5" cy="62" rx="4.2" ry="4.7" fill="#1c1c26"/>
<ellipse cx="72.5" cy="62" rx="4.2" ry="4.7" fill="#1c1c26"/>
<circle cx="52" cy="58.5" r="2" fill="white"/>
<circle cx="74" cy="58.5" r="2" fill="white"/>

<!-- ほっぺ -->
<ellipse cx="41" cy="70" rx="5" ry="3" fill="#ffc0cb" opacity="0.45"/>
<ellipse cx="79" cy="70" rx="5" ry="3" fill="#ffc0cb" opacity="0.45"/>

<!-- くちばし -->
<path d="M54 68 Q60 65 66 68 Q66 74 60 78 Q54 74 54 68Z" fill="#f5a623"/>
<path d="M55 69 Q60 67 65 69 Q65 71 60 72 Q55 71 55 69Z" fill="#e8830a"/>

<!-- 足 -->
<ellipse cx="49" cy="139" rx="9" ry="5" fill="#e8830a"/>
<ellipse cx="49" cy="138" rx="7.5" ry="4" fill="#f5a623"/>
<ellipse cx="71" cy="139" rx="9" ry="5" fill="#e8830a"/>
<ellipse cx="71" cy="138" rx="7.5" ry="4" fill="#f5a623"/>
</svg>
