<svg viewBox="0 0 75 55" xmlns="http://www.w3.org/2000/svg">
<!-- しゃろぺん - すやすや寝ているポーズ（横向き） -->
<!-- 体（背中） -->
<ellipse cx="42" cy="38" rx="24" ry="15" fill="#33313f"/>
<ellipse cx="42" cy="39" rx="21" ry="12.5" fill="#403e4e"/>
<ellipse cx="44" cy="41" rx="14" ry="9" fill="#fdf9f2"/>

<!-- 首元リボン -->
<path d="M20 30 Q26 35 32 31" fill="#2d5016" opacity="0.9"/>

<!-- 頭（黒） -->
<ellipse cx="22" cy="26" rx="18" ry="16" fill="#33313f"/>
<ellipse cx="22" cy="27" rx="15.5" ry="13.5" fill="#3b394a"/>

<!-- 顔（白） -->
<ellipse cx="22" cy="30" rx="11.5" ry="10.5" fill="#fdf9f2"/>
<ellipse cx="17" cy="24" rx="4.5" ry="5.5" fill="#ffffff" opacity="0.45"/>

<!-- キャップ（ちょこんと） -->
<path d="M7 14 Q9 3 22 1 Q35 3 37 14 Q35 10 22 9.5 Q9 10 7 14Z" fill="#1c3a5e"/>
<ellipse cx="22" cy="13.5" rx="15" ry="3" fill="#14283f"/>
<ellipse cx="22" cy="13" rx="13.5" ry="2.4" fill="#1c3a5e"/>

<!-- 目（閉じ・すやすや） -->
<path d="M12 29 Q16 31 20 29" stroke="#1c1c26" stroke-width="1.1" fill="none" stroke-linecap="round"/>
<path d="M22 29 Q26 31 30 29" stroke="#1c1c26" stroke-width="1.1" fill="none" stroke-linecap="round"/>

<!-- ほっぺ -->
<ellipse cx="13" cy="33" rx="3" ry="1.8" fill="#ffc0cb" opacity="0.35"/>
<ellipse cx="31" cy="33" rx="3" ry="1.8" fill="#ffc0cb" opacity="0.35"/>

<!-- くちばし -->
<path d="M18 32 Q22 30 26 32 Q26 35.5 22 38 Q18 35.5 18 32Z" fill="#f5a623"/>

<!-- 前フリッパー（丸めている） -->
<path d="M20 40 Q15 41 14 46 Q13 50 18 51 Q22 51 23 47 Q23 42 20 40Z" fill="#33313f"/>

<!-- 足 -->
<ellipse cx="34" cy="51" rx="8" ry="4" fill="#e8830a"/>

<!-- ZZZ -->
<g fill="#f5a623" font-family="sans-serif" font-weight="bold" opacity="0.75">
  <text x="42" y="14" font-size="7">Z</text>
  <text x="49" y="9" font-size="9">Z</text>
  <text x="58" y="3" font-size="11">Z</text>
</g>
</svg>
