<svg viewBox="0 0 200 250" xmlns="http://www.w3.org/2000/svg">
<!-- ろうむねこ（女の子） - 本部長社労士事務所マスコット -->

<!-- 尻尾 -->
<path d="M155 180 Q178 162 175 138 Q173 125 165 132 Q158 142 153 155 Q150 165 152 175Z" fill="#f0e8e0"/>
<path d="M153 178 Q173 163 170 142 Q168 132 163 137 Q157 146 154 158 Q152 166 153 174Z" fill="#f8f2ec"/>
<!-- 尻尾リボン -->
<path d="M168 140 Q175 133 178 138 Q180 143 175 145" fill="#ff8fa0"/>
<path d="M168 140 Q175 147 178 142 Q180 137 175 135" fill="#ff7090"/>

<!-- 体 -->
<ellipse cx="100" cy="175" rx="52" ry="46" fill="#f0e8e0"/>
<ellipse cx="100" cy="175" rx="48" ry="42" fill="#f8f2ec"/>

<!-- ワンピースエプロン -->
<path d="M62 158 L62 205 Q62 218 78 220 L122 220 Q138 218 138 205 L138 158" fill="#2d5016"/>
<path d="M66 160 L66 203 Q66 214 80 216 L120 216 Q134 214 134 203 L134 160" fill="#3a6a20"/>
<!-- エプロンフリル -->
<path d="M66 160 Q72 165 78 160 Q84 165 90 160 Q96 165 102 160 Q108 165 114 160 Q120 165 126 160 Q132 165 134 160" fill="none" stroke="#4a8a2e" stroke-width="1.2"/>
<!-- エプロンポケット -->
<path d="M82 185 L82 200 Q82 204 88 204 L112 204 Q118 204 118 200 L118 185" fill="#4a7a2e" stroke="#3a6a20" stroke-width="0.5"/>
<!-- ポケットのハート -->
<path d="M95 192 Q95 188 98 188 Q100 188 100 191 Q100 188 102 188 Q105 188 105 192 Q105 196 100 200 Q95 196 95 192Z" fill="#f0d060"/>
<!-- リボンベルト -->
<rect x="62" y="177" width="76" height="5" rx="2" fill="#ff8fa0"/>
<path d="M100 175 L93 183 Q91 186 95 186 L105 186 Q109 186 107 183Z" fill="#ff8fa0"/>
<path d="M100 176 L95 182 Q94 184 96 184 L104 184 Q106 184 105 182Z" fill="#ffaab8"/>
<circle cx="100" cy="178" r="2.5" fill="#f0d060"/>

<!-- 左耳 -->
<path d="M58 92 L42 42 Q40 36 48 40 L72 70Z" fill="#f0e8e0"/>
<path d="M60 90 L45 46 Q44 42 50 44 L70 71Z" fill="#f8f2ec"/>
<path d="M52 60 L47 45 Q46 42 50 48 L56 65Z" fill="#ffc0cb" opacity="0.6"/>
<!-- 左耳の花飾り -->
<g transform="translate(40,38)">
  <circle cx="0" cy="0" r="6" fill="#ff8fa0"/>
  <circle cx="0" cy="-5" r="3" fill="#ffaab8"/>
  <circle cx="4.5" cy="-1.5" r="3" fill="#ffaab8"/>
  <circle cx="3" cy="4" r="3" fill="#ffaab8"/>
  <circle cx="-3" cy="4" r="3" fill="#ffaab8"/>
  <circle cx="-4.5" cy="-1.5" r="3" fill="#ffaab8"/>
  <circle cx="0" cy="0" r="3" fill="#f0d060"/>
</g>

<!-- 右耳 -->
<path d="M142 92 L158 42 Q160 36 152 40 L128 70Z" fill="#f0e8e0"/>
<path d="M140 90 L155 46 Q156 42 150 44 L130 71Z" fill="#f8f2ec"/>
<path d="M148 60 L153 45 Q154 42 150 48 L144 65Z" fill="#ffc0cb" opacity="0.6"/>

<!-- 頭 -->
<ellipse cx="100" cy="100" rx="56" ry="52" fill="#f0e8e0"/>
<ellipse cx="100" cy="100" rx="52" ry="48" fill="#f8f2ec"/>
<ellipse cx="88" cy="94" rx="20" ry="26" fill="#fdf8f4" opacity="0.5"/>

<!-- 前髪ふわふわ -->
<path d="M52 82 Q58 62 72 58 Q80 55 85 60 Q88 50 100 48 Q112 50 115 60 Q120 55 128 58 Q142 62 148 82" fill="#f0e8e0" stroke="#e8d8c8" stroke-width="0.5"/>
<path d="M60 80 Q66 65 78 62 Q85 60 88 65 Q92 55 100 53 Q108 55 112 65 Q115 60 122 62 Q134 65 140 80" fill="#f8f2ec"/>

<!-- 目（大きめ・キラキラ） -->
<ellipse cx="80" cy="96" rx="12" ry="13" fill="white" stroke="#c0a888" stroke-width="0.8"/>
<ellipse cx="120" cy="96" rx="12" ry="13" fill="white" stroke="#c0a888" stroke-width="0.8"/>
<!-- 瞳 -->
<ellipse cx="82" cy="96" rx="7" ry="8" fill="#2d5016"/>
<ellipse cx="122" cy="96" rx="7" ry="8" fill="#2d5016"/>
<!-- ハイライト -->
<circle cx="86" cy="91" r="3.5" fill="white"/>
<circle cx="126" cy="91" r="3.5" fill="white"/>
<circle cx="80" cy="98" r="1.8" fill="white" opacity="0.6"/>
<circle cx="120" cy="98" r="1.8" fill="white" opacity="0.6"/>
<!-- 星キラキラ -->
<path d="M78 88 L79 86 L80 88 L82 87 L80 89 L81 91 L79 90 L77 91 L78 89 L76 87Z" fill="white" opacity="0.8"/>
<path d="M118 88 L119 86 L120 88 L122 87 L120 89 L121 91 L119 90 L117 91 L118 89 L116 87Z" fill="white" opacity="0.8"/>

<!-- まつ毛 -->
<g stroke="#5a4030" stroke-width="1.2" stroke-linecap="round" fill="none">
  <path d="M68 90 Q65 85 63 82"/>
  <path d="M70 87 Q68 82 67 78"/>
  <path d="M73 85 Q72 80 72 76"/>
  <path d="M132 90 Q135 85 137 82"/>
  <path d="M130 87 Q132 82 133 78"/>
  <path d="M127 85 Q128 80 128 76"/>
</g>

<!-- 鼻 -->
<ellipse cx="100" cy="108" rx="4.5" ry="3.2" fill="#ffa0b0"/>
<ellipse cx="99" cy="107" rx="1.5" ry="1" fill="#ffb8c4" opacity="0.6"/>
<path d="M100 111.2 L100 114" stroke="#c0a090" stroke-width="0.8" stroke-linecap="round"/>

<!-- ほっぺ（ピンク大きめ） -->
<ellipse cx="65" cy="110" rx="8" ry="5" fill="#ffc0cb" opacity="0.35"/>
<ellipse cx="135" cy="110" rx="8" ry="5" fill="#ffc0cb" opacity="0.35"/>

<!-- 口（にっこり） -->
<path d="M92 117 Q100 125 108 117" stroke="#c0908a" stroke-width="1.8" fill="none" stroke-linecap="round"/>
<!-- 小さい牙（かわいい） -->
<path d="M94 117 L93 121 L96 118" fill="white" stroke="#e0c8c0" stroke-width="0.3"/>

<!-- ひげ -->
<g stroke="#d0c0b0" stroke-width="0.7" stroke-linecap="round">
  <line x1="35" y1="100" x2="62" y2="105"/>
  <line x1="37" y1="108" x2="63" y2="110"/>
  <line x1="40" y1="116" x2="63" y2="114"/>
  <line x1="165" y1="100" x2="138" y2="105"/>
  <line x1="163" y1="108" x2="137" y2="110"/>
  <line x1="160" y1="116" x2="137" y2="114"/>
</g>

<!-- リボン（首元） -->
<path d="M80 133 Q100 148 120 133" fill="#2d5016"/>
<path d="M84 134 Q100 145 116 134" fill="#4a7a2e"/>
<path d="M93 134 Q100 139 107 134" fill="#5a9a3e" opacity="0.5"/>
<path d="M100 142 L94 152 Q92 155 96 155 L104 155 Q108 155 106 152Z" fill="#2d5016"/>
<path d="M100 144 L96 150 Q95 152 97 152 L103 152 Q105 152 104 150Z" fill="#4a7a2e"/>

<!-- 手 -->
<ellipse cx="52" cy="178" rx="12" ry="14" fill="#f0e8e0"/>
<ellipse cx="52" cy="178" rx="10" ry="12" fill="#f8f2ec"/>
<ellipse cx="52" cy="182" rx="6" ry="4" fill="#ffc0cb" opacity="0.2"/>
<ellipse cx="148" cy="178" rx="12" ry="14" fill="#f0e8e0"/>
<ellipse cx="148" cy="178" rx="10" ry="12" fill="#f8f2ec"/>
<ellipse cx="148" cy="182" rx="6" ry="4" fill="#ffc0cb" opacity="0.2"/>

<!-- 右手に持った書類 -->
<g transform="translate(148, 165) rotate(-10)">
  <rect x="-2" y="-20" width="28" height="36" rx="2" fill="white" stroke="#d0d8d0" stroke-width="0.6"/>
  <rect x="-2" y="-20" width="28" height="6" rx="2" fill="#2d5016"/>
  <rect x="-2" y="-16" width="28" height="2" fill="#2d5016"/>
  <line x1="3" y1="-8" x2="22" y2="-8" stroke="#d8e0d8" stroke-width="1"/>
  <line x1="3" y1="-3" x2="22" y2="-3" stroke="#d8e0d8" stroke-width="1"/>
  <line x1="3" y1="2" x2="22" y2="2" stroke="#d8e0d8" stroke-width="1"/>
  <line x1="3" y1="7" x2="16" y2="7" stroke="#d8e0d8" stroke-width="1"/>
</g>

<!-- 足 -->
<ellipse cx="80" cy="222" rx="14" ry="9" fill="#f0e8e0"/>
<ellipse cx="80" cy="222" rx="12" ry="7" fill="#f8f2ec"/>
<ellipse cx="80" cy="224" rx="7" ry="4" fill="#ffc0cb" opacity="0.2"/>
<ellipse cx="120" cy="222" rx="14" ry="9" fill="#f0e8e0"/>
<ellipse cx="120" cy="222" rx="12" ry="7" fill="#f8f2ec"/>
<ellipse cx="120" cy="224" rx="7" ry="4" fill="#ffc0cb" opacity="0.2"/>
</svg>
