<svg viewBox="0 0 65 80" xmlns="http://www.w3.org/2000/svg">
<!-- しゃろぺん - ハートポーズ（両手でハート） -->
<!-- 体（背中） -->
<ellipse cx="30" cy="60" rx="20" ry="17" fill="#33313f"/>
<ellipse cx="30" cy="62" rx="17" ry="14" fill="#403e4e"/>
<ellipse cx="30" cy="66" rx="11" ry="13" fill="#fdf9f2"/>

<!-- 首元リボン -->
<path d="M20 46 Q30 52 40 46" fill="#2d5016"/>
<path d="M23 47 Q30 50 37 47" fill="#4a7a2e"/>

<!-- 頭（黒） -->
<ellipse cx="30" cy="32" rx="22" ry="20" fill="#33313f"/>
<ellipse cx="30" cy="34" rx="19" ry="17" fill="#3b394a"/>

<!-- 顔（白） -->
<ellipse cx="30" cy="38" rx="14.5" ry="13" fill="#fdf9f2"/>
<ellipse cx="24" cy="31" rx="6" ry="7" fill="#ffffff" opacity="0.45"/>

<!-- キャップ -->
<path d="M12 17 Q14 3 30 1 Q46 3 48 17 Q46 12 30 11 Q14 12 12 17Z" fill="#1c3a5e"/>
<path d="M14 16 Q16 6 30 5 Q44 6 46 16 Q44 12 30 11 Q16 12 14 16Z" fill="#26507a"/>
<ellipse cx="30" cy="17" rx="19" ry="4" fill="#14283f"/>
<ellipse cx="30" cy="16.2" rx="17" ry="3.2" fill="#1c3a5e"/>
<circle cx="30" cy="9" r="4" fill="#f0d060"/>
<text x="30" y="10.6" font-family="'Hiragino Sans', 'Yu Gothic', sans-serif" font-size="5.5" font-weight="700" fill="#1c3a5e" text-anchor="middle">M</text>

<!-- 目（にっこり閉じ） -->
<path d="M18 36 Q23 32 28 36" stroke="#1c1c26" stroke-width="1.3" fill="none" stroke-linecap="round"/>
<path d="M32 36 Q37 32 42 36" stroke="#1c1c26" stroke-width="1.3" fill="none" stroke-linecap="round"/>

<!-- ほっぺ -->
<ellipse cx="18" cy="41" rx="3.5" ry="2" fill="#ffc0cb" opacity="0.5"/>
<ellipse cx="42" cy="41" rx="3.5" ry="2" fill="#ffc0cb" opacity="0.5"/>

<!-- くちばし -->
<path d="M25 40 Q30 37 35 40 Q35.5 45 30 49 Q24.5 45 25 40Z" fill="#f5a623"/>
<path d="M26 41 Q30 39 34 41 Q34 43.5 30 44.5 Q26 43.5 26 41Z" fill="#e8830a"/>

<!-- 両手でハート -->
<path d="M11 51 Q6 53 6 58 Q6 62 11 62 Q15 61 15 56 Q15 53 11 51Z" fill="#33313f"/>
<path d="M49 51 Q54 53 54 58 Q54 62 49 62 Q45 61 45 56 Q45 53 49 51Z" fill="#33313f"/>

<!-- ハート -->
<path d="M23 51 Q23 47 26 47 Q29 47 29 50 Q29 47 32 47 Q35 47 35 51 Q35 55 29 59 Q23 55 23 51Z" fill="#ff8fa0"/>

<!-- 足 -->
<ellipse cx="23" cy="76" rx="6.5" ry="4" fill="#e8830a"/>
<ellipse cx="23" cy="75" rx="5.5" ry="3.2" fill="#f5a623"/>
<ellipse cx="37" cy="76" rx="6.5" ry="4" fill="#e8830a"/>
<ellipse cx="37" cy="75" rx="5.5" ry="3.2" fill="#f5a623"/>
</svg>
