<svg viewBox="0 0 60 80" xmlns="http://www.w3.org/2000/svg">
<!-- ろうむねこ - のぞき見ポーズ -->
<!-- 体（半分隠れている） -->
<ellipse cx="30" cy="60" rx="20" ry="16" fill="#f0e8e0"/>
<ellipse cx="30" cy="60" rx="18" ry="14" fill="#f8f2ec"/>

<!-- エプロン -->
<path d="M14 55 L14 72 Q14 76 22 77 L38 77 Q46 76 46 72 L46 55" fill="#3a6a20"/>
<rect x="14" y="63" width="32" height="2.5" rx="1" fill="#ff8fa0"/>

<!-- 左耳 -->
<path d="M16 28 L10 10 Q9 7 13 9 L22 20Z" fill="#f0e8e0"/>
<path d="M17 27 L11 12 Q10 10 14 11 L21 21Z" fill="#f8f2ec"/>
<path d="M13 16 L11 11 Q10 10 13 13Z" fill="#ffc0cb" opacity="0.5"/>
<!-- 花 -->
<g transform="translate(9,8) scale(0.6)">
  <circle cx="0" cy="0" r="4" fill="#ff8fa0"/>
  <circle cx="0" cy="-3" r="2" fill="#ffaab8"/>
  <circle cx="3" cy="-1" r="2" fill="#ffaab8"/>
  <circle cx="2" cy="2.5" r="2" fill="#ffaab8"/>
  <circle cx="-2" cy="2.5" r="2" fill="#ffaab8"/>
  <circle cx="-3" cy="-1" r="2" fill="#ffaab8"/>
  <circle cx="0" cy="0" r="2" fill="#f0d060"/>
</g>

<!-- 右耳 -->
<path d="M44 28 L50 10 Q51 7 47 9 L38 20Z" fill="#f0e8e0"/>
<path d="M43 27 L49 12 Q50 10 46 11 L39 21Z" fill="#f8f2ec"/>
<path d="M47 16 L49 11 Q50 10 47 13Z" fill="#ffc0cb" opacity="0.5"/>

<!-- 頭 -->
<ellipse cx="30" cy="32" rx="22" ry="20" fill="#f0e8e0"/>
<ellipse cx="30" cy="32" rx="20" ry="18" fill="#f8f2ec"/>

<!-- 前髪 -->
<path d="M11 28 Q14 20 22 18 Q26 17 28 20 Q29 16 30 15 Q31 16 32 20 Q34 17 38 18 Q46 20 49 28" fill="#f8f2ec" stroke="#e8d8c8" stroke-width="0.3"/>

<!-- 目（キラキラ） -->
<ellipse cx="23" cy="30" rx="5" ry="5.5" fill="white" stroke="#c0a888" stroke-width="0.4"/>
<ellipse cx="37" cy="30" rx="5" ry="5.5" fill="white" stroke="#c0a888" stroke-width="0.4"/>
<ellipse cx="24" cy="30" rx="3" ry="3.5" fill="#2d5016"/>
<ellipse cx="38" cy="30" rx="3" ry="3.5" fill="#2d5016"/>
<circle cx="26" cy="28" r="1.5" fill="white"/>
<circle cx="40" cy="28" r="1.5" fill="white"/>

<!-- まつ毛 -->
<g stroke="#5a4030" stroke-width="0.6" stroke-linecap="round" fill="none">
  <path d="M18 27 Q17 24 16 23"/>
  <path d="M42 27 Q43 24 44 23"/>
</g>

<!-- 鼻 -->
<ellipse cx="30" cy="35" rx="2" ry="1.5" fill="#ffa0b0"/>

<!-- ほっぺ -->
<ellipse cx="18" cy="37" rx="3.5" ry="2" fill="#ffc0cb" opacity="0.35"/>
<ellipse cx="42" cy="37" rx="3.5" ry="2" fill="#ffc0cb" opacity="0.35"/>

<!-- 口 -->
<path d="M27 39 Q30 42 33 39" stroke="#c0908a" stroke-width="0.8" fill="none" stroke-linecap="round"/>

<!-- ひげ -->
<g stroke="#d0c0b0" stroke-width="0.3" stroke-linecap="round">
  <line x1="8" y1="32" x2="19" y2="34"/>
  <line x1="9" y1="36" x2="20" y2="36"/>
  <line x1="52" y1="32" x2="41" y2="34"/>
  <line x1="51" y1="36" x2="40" y2="36"/>
</g>

<!-- 手（のぞき見） -->
<ellipse cx="12" cy="53" rx="5" ry="6" fill="#f0e8e0"/>
<ellipse cx="12" cy="53" rx="4" ry="5" fill="#f8f2ec"/>
<ellipse cx="48" cy="53" rx="5" ry="6" fill="#f0e8e0"/>
<ellipse cx="48" cy="53" rx="4" ry="5" fill="#f8f2ec"/>
</svg>
