<svg viewBox="0 0 70 80" xmlns="http://www.w3.org/2000/svg">
<!-- しゃろぺん - 案内ポーズ（指差し・ウインク） -->
<!-- 体（背中） -->
<ellipse cx="30" cy="62" rx="21" ry="18" fill="#33313f"/>
<ellipse cx="30" cy="64" rx="18" ry="15" fill="#403e4e"/>
<ellipse cx="30" cy="68" rx="12" ry="14" fill="#fdf9f2"/>

<!-- 首元リボン -->
<path d="M19 47 Q30 54 41 47" fill="#2d5016"/>
<path d="M22 48 Q30 52 38 48" fill="#4a7a2e"/>

<!-- 頭（黒） -->
<ellipse cx="30" cy="32" rx="23" ry="21" fill="#33313f"/>
<ellipse cx="30" cy="34" rx="20" ry="18" fill="#3b394a"/>

<!-- 顔（白） -->
<ellipse cx="30" cy="38" rx="15" ry="14" fill="#fdf9f2"/>
<ellipse cx="24" cy="31" rx="6" ry="7" fill="#ffffff" opacity="0.45"/>

<!-- キャップ -->
<path d="M11 17 Q13 3 30 1 Q47 3 49 17 Q47 12 30 11 Q13 12 11 17Z" fill="#1c3a5e"/>
<path d="M13 16 Q15 6 30 5 Q45 6 47 16 Q45 12 30 11 Q15 12 13 16Z" fill="#26507a"/>
<ellipse cx="30" cy="17" rx="20" ry="4" fill="#14283f"/>
<ellipse cx="30" cy="16.2" rx="18" ry="3.2" fill="#1c3a5e"/>
<circle cx="30" cy="9" r="4" fill="#f0d060"/>
<text x="30" y="10.6" font-family="'Hiragino Sans', 'Yu Gothic', sans-serif" font-size="5.5" font-weight="700" fill="#1c3a5e" text-anchor="middle">M</text>

<!-- 右目（開いている） -->
<ellipse cx="37" cy="35" rx="5" ry="5.5" fill="white" stroke="#c8c4b8" stroke-width="0.4"/>
<ellipse cx="38.2" cy="36" rx="3" ry="3.5" fill="#1c1c26"/>
<circle cx="40" cy="33" r="1.5" fill="white"/>
<!-- 左目（ウインク） -->
<path d="M18 35 Q23 38 28 35" stroke="#1c1c26" stroke-width="1.3" fill="none" stroke-linecap="round"/>

<!-- ほっぺ -->
<ellipse cx="18" cy="41" rx="3.5" ry="2" fill="#ffc0cb" opacity="0.45"/>
<ellipse cx="42" cy="41" rx="3.5" ry="2" fill="#ffc0cb" opacity="0.4"/>

<!-- くちばし -->
<path d="M25 40 Q30 37 35 40 Q35.5 45 30 49 Q24.5 45 25 40Z" fill="#f5a623"/>
<path d="M26 41 Q30 39 34 41 Q34 43.5 30 44.5 Q26 43.5 26 41Z" fill="#e8830a"/>

<!-- 左手 -->
<path d="M9 58 Q4 60 4 66 Q4 71 9 71 Q13 70 13 64 Q13 60 9 58Z" fill="#33313f"/>

<!-- 右手（指差し） -->
<g transform="translate(52, 50) rotate(-30)">
  <path d="M0 -11 Q9 -9 10 1 Q11 10 3 14 Q-4 15 -5 6 Q-6 -4 0 -11Z" fill="#33313f"/>
  <path d="M1 -7 Q6 -5 7 2 Q7 8 3 10" fill="#403e4e"/>
</g>

<!-- 足 -->
<ellipse cx="23" cy="77" rx="7" ry="4" fill="#e8830a"/>
<ellipse cx="23" cy="76" rx="6" ry="3.2" fill="#f5a623"/>
<ellipse cx="37" cy="77" rx="7" ry="4" fill="#e8830a"/>
<ellipse cx="37" cy="76" rx="6" ry="3.2" fill="#f5a623"/>
</svg>
